<?xml version="1.0" standalone="no"?><!DOCTYPE svg PUBLIC "-//W3C//DTD SVG 1.1//EN" "http://www.w3.org/Graphics/SVG/1.1/DTD/svg11.dtd"><svg width="100%" height="100%" viewBox="0 0 301 88" version="1.1" xmlns="http://www.w3.org/2000/svg" xmlns:xlink="http://www.w3.org/1999/xlink" xml:space="preserve" style="fill-rule:evenodd;clip-rule:evenodd;stroke-linejoin:round;stroke-miterlimit:1.41421;"><g><path d="M10.2,35.04l0,50.64l17.04,0l0,-50.64l11.76,0l0,-11.4l-11.76,0l0,-3.72c0,-2.56 0.5,-4.38 1.5,-5.46c1,-1.08 2.66,-1.62 4.98,-1.62c2.16,0 4.24,0.12 6.24,0.36l0,-12.72c-1.44,-0.08 -2.92,-0.18 -4.44,-0.3c-1.52,-0.12 -3.04,-0.18 -4.56,-0.18c-6.96,0 -12.16,1.76 -15.6,5.28c-3.44,3.52 -5.16,8.04 -5.16,13.56l0,4.8l-10.2,0l0,11.4l10.2,0Z" style="fill:#ff6600;fill-rule:nonzero;"/><rect x="40.72" y="23.64" width="17.04" height="62.04" style="fill:#ff6600;fill-rule:nonzero;"/><path d="M59.2,23.64l0,62.04l17.04,0l0,-27.96c0,-2.8 0.28,-5.4 0.84,-7.8c0.56,-2.4 1.5,-4.5 2.82,-6.3c1.32,-1.8 3.06,-3.22 5.22,-4.26c2.16,-1.04 4.8,-1.56 7.92,-1.56c1.04,0 2.12,0.06 3.24,0.18c1.12,0.12 2.08,0.26 2.88,0.42l0,-15.84c-1.36,-0.4 -2.6,-0.6 -3.72,-0.6c-2.16,0 -4.24,0.32 -6.24,0.96c-2,0.64 -3.88,1.54 -5.64,2.7c-1.76,1.16 -3.32,2.56 -4.68,4.2c-1.36,1.64 -2.44,3.42 -3.24,5.34l-0.24,0l0,-11.52l-16.2,0Z" style="fill:#ff6600;fill-rule:nonzero;"/><path d="M133.48,48l-27.72,0c0.08,-1.2 0.34,-2.56 0.78,-4.08c0.44,-1.52 1.2,-2.96 2.28,-4.32c1.08,-1.36 2.52,-2.5 4.32,-3.42c1.8,-0.92 4.06,-1.38 6.78,-1.38c4.16,0 7.26,1.12 9.3,3.36c2.04,2.24 3.46,5.52 4.26,9.84ZM105.76,58.8l44.76,0c0.32,-4.8 -0.08,-9.4 -1.2,-13.8c-1.12,-4.4 -2.94,-8.32 -5.46,-11.76c-2.52,-3.44 -5.74,-6.18 -9.66,-8.22c-3.92,-2.04 -8.52,-3.06 -13.8,-3.06c-4.72,0 -9.02,0.84 -12.9,2.52c-3.88,1.68 -7.22,3.98 -10.02,6.9c-2.8,2.92 -4.96,6.38 -6.48,10.38c-1.52,4 -2.28,8.32 -2.28,12.96c0,4.8 0.74,9.2 2.22,13.2c1.48,4 3.58,7.44 6.3,10.32c2.72,2.88 6.04,5.1 9.96,6.66c3.92,1.56 8.32,2.34 13.2,2.34c7.04,0 13.04,-1.6 18,-4.8c4.96,-3.2 8.64,-8.52 11.04,-15.96l-15,0c-0.56,1.92 -2.08,3.74 -4.56,5.46c-2.48,1.72 -5.44,2.58 -8.88,2.58c-4.8,0 -8.48,-1.24 -11.04,-3.72c-2.56,-2.48 -3.96,-6.48 -4.2,-12Z" style="fill:#ff6600;fill-rule:nonzero;"/><g><path d="M196.48,72.48l-0.24,0c-2.56,4.88 -5.76,8.54 -9.6,10.98c-3.84,2.44 -8.52,3.66 -14.04,3.66c-4.64,0 -8.64,-0.88 -12,-2.64c-3.36,-1.76 -6.12,-4.12 -8.28,-7.08c-2.16,-2.96 -3.76,-6.38 -4.8,-10.26c-1.04,-3.88 -1.56,-7.94 -1.56,-12.18c0,-4.56 0.56,-8.82 1.68,-12.78c1.12,-3.96 2.82,-7.38 5.1,-10.26c2.28,-2.88 5.14,-5.16 8.58,-6.84c3.44,-1.68 7.48,-2.52 12.12,-2.52c2.48,0 4.92,0.34 7.32,1.02c2.4,0.68 4.62,1.66 6.66,2.94c2.04,1.28 3.82,2.88 5.34,4.8c1.52,1.92 2.68,4.08 3.48,6.48l0.24,0l0,-37.8l4.56,0l0,85.68l-4.56,0l0,-13.2ZM173.56,83.16c3.92,0 7.3,-0.8 10.14,-2.4c2.84,-1.6 5.2,-3.72 7.08,-6.36c1.88,-2.64 3.28,-5.66 4.2,-9.06c0.92,-3.4 1.38,-6.86 1.38,-10.38c0,-3.6 -0.46,-7.1 -1.38,-10.5c-0.92,-3.4 -2.3,-6.44 -4.14,-9.12c-1.84,-2.68 -4.22,-4.82 -7.14,-6.42c-2.92,-1.6 -6.34,-2.4 -10.26,-2.4c-4.08,0 -7.56,0.78 -10.44,2.34c-2.88,1.56 -5.26,3.66 -7.14,6.3c-1.88,2.64 -3.24,5.68 -4.08,9.12c-0.84,3.44 -1.26,7 -1.26,10.68c0,3.6 0.46,7.1 1.38,10.5c0.92,3.4 2.32,6.42 4.2,9.06c1.88,2.64 4.26,4.74 7.14,6.3c2.88,1.56 6.32,2.34 10.32,2.34Z" style="fill:#667477;fill-rule:nonzero;"/><path d="M205.36,55.44l0,0.72c0,3.6 0.48,7.04 1.44,10.32c0.96,3.28 2.38,6.16 4.26,8.64c1.88,2.48 4.24,4.44 7.08,5.88c2.84,1.44 6.14,2.16 9.9,2.16c6.16,0 11.04,-1.62 14.64,-4.86c3.6,-3.24 6.08,-7.74 7.44,-13.5l4.56,0c-1.36,7.2 -4.3,12.72 -8.82,16.56c-4.52,3.84 -10.5,5.76 -17.94,5.76c-4.56,0 -8.54,-0.82 -11.94,-2.46c-3.4,-1.64 -6.24,-3.88 -8.52,-6.72c-2.28,-2.84 -3.98,-6.2 -5.1,-10.08c-1.12,-3.88 -1.68,-8.06 -1.68,-12.54c0,-4.32 0.58,-8.46 1.74,-12.42c1.16,-3.96 2.9,-7.44 5.22,-10.44c2.32,-3 5.22,-5.4 8.7,-7.2c3.48,-1.8 7.58,-2.7 12.3,-2.7c4.32,0 8.14,0.8 11.46,2.4c3.32,1.6 6.1,3.78 8.34,6.54c2.24,2.76 3.94,5.96 5.1,9.6c1.16,3.64 1.74,7.54 1.74,11.7c0,0.4 -0.02,0.86 -0.06,1.38c-0.04,0.52 -0.06,0.94 -0.06,1.26l-49.8,0ZM250.6,51.48c-0.16,-3.36 -0.72,-6.54 -1.68,-9.54c-0.96,-3 -2.38,-5.64 -4.26,-7.92c-1.88,-2.28 -4.16,-4.1 -6.84,-5.46c-2.68,-1.36 -5.74,-2.04 -9.18,-2.04c-3.68,0 -6.92,0.7 -9.72,2.1c-2.8,1.4 -5.16,3.24 -7.08,5.52c-1.92,2.28 -3.4,4.94 -4.44,7.98c-1.04,3.04 -1.68,6.16 -1.92,9.36l45.12,0Z" style="fill:#667477;fill-rule:nonzero;"/><path d="M277.36,85.68l-5.64,0l-24.84,-61.68l5.28,0l22.32,56.4l0.24,0l20.88,-56.4l5.04,0l-23.28,61.68Z" style="fill:#667477;fill-rule:nonzero;"/></g></g></svg>
