<svg viewBox="0 0 140 180" xmlns="http://www.w3.org/2000/svg" fill-rule="evenodd" clip-rule="evenodd" stroke-linejoin="round" stroke-miterlimit="1.414"><path d="M10.71 166.943s.24-37.322.24-75.263c0-73.488-6.193-78.962 26.78-78.962h91.78v106c0 34.895 6.52 48.564-30.15 48.564s-88.65-.34-88.65-.34z" fill="#a62c39" fill-rule="nonzero"/><path d="M86.38 26.582s5.882 1.176 10.98 9.8c5.096 8.627 32.15 75.67 32.15 75.67V57.556L104.415 16.78l7.058 8.626 13.33-10.978-17.25-1.177L86.38 26.583z" fill="url(#a)" fill-rule="nonzero"/><g fill-rule="nonzero"><path d="M34.236 13.643S73.05 39.52 91.87 44.617c18.82 5.097 38.423 10.586 38.423 10.586l-44.696 109.78 19.212.784 25.09-61.947-.783-90.568-94.88.392z" fill="url(#b)"/><path d="M70.306 129.304l40.378 38.834-75.272-1.587s-2.353-23.916-1.568-36.462c.784-12.546 4.704-12.546 4.704-12.546l31.758 11.762z" fill="#fff" fill-opacity=".439"/></g><g fill-rule="nonzero"><path d="M107.553 167.335l-36.463-37.64-33.326-12.545-25.876-57.635 27.445-45.872-18.428-.784-7.45 7.056-2.743 5.49-1.96 142.713 98.8-.785z" fill-opacity=".361"/><path d="M129.9 107.348s-36.854 11.762-58.81 22.74c-21.955 10.978-33.718 37.64-33.718 37.64s47.05-2.354 64.692-1.57c17.643.785 25.877.785 27.445-23.916 1.567-24.7.39-34.894.39-34.894z" fill="#83222d" fill-opacity=".5"/></g><g fill="#fff"><path d="M22.072 130.764v23.156h5.906v-6.03l5.375 5.374h9.062l-7.187-7.188s5.17-.083 5.562-7.562c0-6.86-5.177-7.75-11.156-7.75h-7.562zm6.187 6.28h5.093v4.126H28.26v-4.125zM53.822 130.857c-3.234-.018-7.72.282-7.72 6.375v16.094h6.063v-3.938h5.875v3.844h6.094v-16.875c0-5.293-5.88-5.5-9.03-5.5-.395 0-.82.003-1.282 0zm-1.563 5.813h5.687v6.344H52.26v-6.344z" fill-rule="nonzero"/><path d="M70.208 130.872h6.273v22.152H70.21z"/><path d="M83.048 131.166v22.152h15.095v-5.88h-8.92v-16.37l-6.175.098zM118.14 130.97v5.98h-10.097v2.155h4.313c2.254 0 6.96-.098 6.96 6.96 0 7.057-3.235 7.45-9.803 7.45h-7.94v-5.392h9.117c2.744 0 2.896-.893 2.896-1.672 0-.777-1.404-1.14-4.257-1.14-2.855 0-8.148-1.402-8.148-6.89 0-5.49 2.744-7.548 8.233-7.548 5.49 0 8.724.098 8.724.098z" fill-rule="nonzero"/></g><g fill="#fff" fill-rule="nonzero"><path d="M27.57 124.207h52.146s-11.566-26.27-8.626-50.38c2.94-24.113 21.956-35.09 32.738-36.268 10.782-1.177 16.663 5.488 16.663 5.488l2.354-3.528s-15.487-15.683-35.09-13.92c-19.604 1.766-33.13 14.704-41.56 30.387s-13.33 26.66-16.663 43.127c-3.332 16.467-1.96 25.093-1.96 25.093zM17.18 97.94l10.194.783-1.764 10.193-9.606-1.176 1.177-9.802zM33.255 76.375L36 68.73l-9.018-3.53-2.94 8.234 9.213 2.94zM45.998 50.106l5.293-6.273-6.86-4.51-5.49 6.078L46 50.107zM59.916 25.797l4.705 5.686 6.47-3.725-4.705-5.293-6.47 3.333zM82.852 19.328l1.177 5.685 8.036-.196-.784-5.097-8.43-.392zM110.1 25.405l-.195 3.53 5.49 2.94 1.175-1.765-6.47-4.705z"/><path d="M108.925 40.5v2.94l5.293.59v-2.354l-5.293-1.176zM92.066 43.05l2.55 4.703 3.723-2.94-.785-3.137-5.49 1.373zM84.03 49.126l3.92 5.88-2.353 4.117-5.685-6.273 4.117-3.724zM76.187 65.397l-2.548 5.097 6.664 5.685 1.568-6.47-5.685-4.313zM73.443 83.236l-.392 6.86 8.234 3.53-.392-6.47-7.45-3.92zM75.795 107.544l1.96 7.057 10.39.59-3.724-7.646h-8.625z"/></g><path d="M99.36 165.782h.406l.4-.002.398-.004.394-.004.39-.006.386-.006.383-.008.38-.01.374-.01.373-.012.368-.013.366-.015.36-.015.358-.017.354-.018.35-.02.347-.02.343-.022.34-.023.336-.025.333-.025.33-.027.325-.03.322-.028.32-.03.314-.033.313-.034.31-.035.305-.035.302-.037.298-.038.296-.04.293-.04.288-.043.287-.043.282-.045.278-.047.276-.047.272-.048.27-.05.266-.05.262-.053.26-.054.257-.054.254-.056.25-.057.247-.058.246-.06.24-.06.238-.063.235-.064.23-.064.23-.066.226-.068.223-.068.22-.07.215-.07.214-.072.21-.074.21-.074.204-.076.203-.076.2-.078.196-.08.194-.08.19-.082.19-.083.185-.083.184-.086.18-.086.178-.087.175-.09.17-.09.17-.09.168-.092.165-.094.162-.095.16-.096.157-.098.155-.098.153-.1.15-.1.148-.1.145-.104.143-.104.14-.105.14-.105.136-.108.135-.108.132-.11.13-.113.127-.112.126-.114.124-.114.122-.116.12-.117.116-.12.117-.12.114-.12.112-.124.11-.125.108-.125.107-.127.105-.128.104-.13.1-.13.1-.134.1-.133.097-.136.096-.136.093-.138.09-.14.09-.142.09-.143.087-.144.086-.147.084-.15.083-.148.08-.152.08-.152.08-.155.076-.156.075-.158.076-.16.072-.163.07-.163.07-.165.07-.167.067-.17.066-.17.065-.17.063-.175.062-.175.06-.178.06-.18.058-.18.057-.183.055-.185.054-.186.053-.187.052-.19.05-.193.048-.194.048-.195.047-.197.046-.2.043-.2.043-.204.042-.206.04-.207.04-.21.04-.21.037-.212.037-.214.035-.216.034-.218.035-.22.032-.222.03-.224.03-.225.03-.228.028-.23.027-.23.026-.234.025-.235.024-.237.024-.238.023-.24.02-.244.022-.244.02-.247.018-.248.018-.25.018-.253.016-.254.015-.256.014-.258.013-.26.013-.262.013-.263.01-.265.012-.268.01-.27.01-.27.015-.547.014-.555.012-.563.01-.57.005-.578.006-.586.002-.593v-1.208l-.003-.615-.005-.623-.005-.63-.007-.64-.01-.646-.008-.654-.01-.66-.022-1.347-.025-1.377-.025-1.407-.025-1.438-.025-1.47-.01-.746-.012-.755-.01-.762-.01-.77-.007-.778-.008-.785-.006-.794-.004-.8-.002-.81V14.216H36.97l-.748.004-.732.006-.72.008-.35.005-.35.007-.347.006-.343.007-.34.008-.335.01-.332.008-.328.01-.325.012-.322.012-.318.013-.314.014-.31.014-.31.017-.303.017-.3.017-.298.02-.294.02-.29.02-.286.022-.284.023-.28.024-.277.024-.274.026-.27.027-.268.028-.264.03-.26.03-.257.033-.253.033-.25.036-.248.035-.245.038-.24.04-.238.038-.234.04-.23.044-.23.043-.223.045-.222.046-.218.048-.215.05-.212.05-.21.052-.205.053-.203.055-.2.056-.196.058-.195.06-.19.06-.188.06-.184.065-.182.066-.178.066-.175.068-.173.07-.17.07-.168.073-.164.074-.162.076-.16.077-.156.08-.156.08-.073.04-.076.04-.075.043-.074.042-.073.042-.073.043-.072.044-.07.043-.072.044-.07.046-.07.045-.07.046-.068.046-.068.046-.067.047-.067.047-.066.048-.066.048-.065.048-.065.05-.064.048-.064.05-.063.05-.062.052-.062.05-.062.053-.06.05-.06.054-.06.053-.06.054-.06.055-.058.055-.058.055-.057.056-.058.058-.057.057-.057.057-.056.058-.055.06-.055.058-.055.06-.054.06-.052.06-.054.063-.053.063-.05.063-.053.063-.052.063-.05.065-.052.065-.05.066-.05.065-.05.068-.05.068-.05.07-.048.068-.048.07-.048.07-.048.072-.047.072-.047.073-.047.073-.045.074-.045.075-.046.075-.045.077-.045.076-.045.077-.044.08-.042.076-.087.162-.085.164-.083.167-.083.17-.08.174-.08.176-.078.18-.078.183-.075.187-.074.19-.072.193-.07.197-.07.2-.07.204-.066.208-.065.21-.066.215-.063.218-.06.222-.06.225-.06.23-.058.23-.057.238-.055.24-.054.243-.052.248-.052.25-.05.256-.048.26-.048.26-.046.268-.045.27-.044.274-.042.278-.04.282-.04.286-.04.29-.038.294-.037.298-.035.3-.034.307-.034.31-.032.314-.03.32-.03.32-.03.327-.027.33-.025.334-.026.34-.026.342-.023.347-.022.35-.02.355-.022.36-.02.363-.018.368-.017.372-.016.377-.016.38-.015.386-.014.39-.014.394-.013.398-.01.403-.012.407-.01.412-.008.416-.008.42-.008.425-.007.43-.007.434-.006.437-.008.892-.008.91-.003.927-.002.947v.966l.004.986.005 1.004.007 1.024.01 1.044.01 1.064.01 1.083.014 1.104.015 1.123.032 2.31.036 2.392.038 2.477.04 2.564.04 2.65.038 2.74.02 1.403.017 1.425.018 1.448.017 1.472.016 1.495.015 1.52.013 1.54.013 1.567.01 1.59.01 1.613.007 1.638.005 1.663.003 1.688v5.267l-.002 3.544-.003 3.526-.004 3.503-.006 3.472-.007 3.435-.007 3.392-.008 3.34-.01 3.283-.008 3.22-.02 6.22-.022 5.88-.022 5.492-.022 5.047-.02 4.548-.02 3.996-.02 3.39-.026 4.748v.178l.868.005 6.545.04 4.575.025 5.303.028 5.925.03 6.442.032 6.853.032 7.16.03 3.66.015 3.698.013 3.723.014 3.732.012 3.73.01 3.714.01 3.684.01 3.642.007 3.587.007 3.52.004 3.436.003 3.34.002zm.002 3h-3.345l-3.438-.004-3.52-.004-3.59-.007-3.643-.007-3.686-.01-3.714-.01-3.73-.01-3.733-.013-3.723-.014-3.7-.014-3.66-.015-7.16-.03-6.854-.033-6.443-.03-5.926-.032-5.303-.028-4.576-.026-6.546-.04-3.87-.022.02-3.178.027-4.746.017-3.39.02-3.994.02-4.547.023-5.047.023-5.49.02-5.88.02-6.22.01-3.218.01-3.283.007-3.34.007-3.39.007-3.435.005-3.472.003-3.502.004-3.526.002-3.544V91.68l-.002-1.708-.003-1.683-.005-1.66-.008-1.635-.008-1.61-.01-1.587-.013-1.562-.012-1.54-.015-1.515-.015-1.492-.017-1.47-.017-1.446-.018-1.424-.02-1.4-.037-2.738-.04-2.65L9.168 62l-.037-2.478-.035-2.394-.032-2.313-.015-1.127-.013-1.106-.012-1.087-.01-1.067-.01-1.05-.006-1.028-.005-1.01-.003-.99-.002-.974v-.955l.005-.937.006-.92.008-.9.005-.444.006-.44.006-.435.008-.43.01-.428.008-.422.01-.42.01-.412.013-.41.012-.406.014-.4.015-.4.015-.392.017-.39.017-.385.018-.38.02-.378.02-.374.02-.37.022-.365.023-.362.025-.356.025-.355.027-.35.027-.347.03-.343.03-.34.03-.335.033-.332.034-.328.034-.325.038-.32.037-.318.038-.314.04-.31.042-.308.042-.304.044-.3.047-.297.047-.295.048-.29.05-.287.05-.284.054-.28.055-.278.057-.275.058-.27.06-.268.06-.265.062-.26.065-.26.066-.256.068-.252.07-.25.07-.247.074-.243.075-.24.077-.24.08-.234.08-.233.083-.23.085-.226.088-.225.09-.222.09-.22.093-.215.097-.213.098-.21.1-.208.102-.205.105-.202.105-.197.056-.1.055-.1.055-.097.057-.096.056-.096.058-.095.057-.095.06-.094.06-.094.06-.092.06-.092.06-.092.062-.09.062-.09.063-.09.063-.088.064-.088.065-.088.064-.086.066-.086.066-.086.067-.084.068-.084.07-.083.07-.082.068-.082.07-.08.07-.08.073-.08.073-.08.073-.078.073-.078.073-.077.075-.076.075-.076.076-.074.076-.074.077-.073.078-.074.08-.072.078-.072.08-.07.08-.07.08-.07.082-.068.082-.068.083-.067.083-.068.084-.066.085-.065.085-.063.086-.064.086-.063.087-.062.088-.062.088-.06.09-.06.088-.06.09-.06.09-.058.092-.058.09-.057.093-.056.092-.056.093-.054.094-.054.094-.054.095-.053.094-.052.1-.053.19-.1.197-.1.2-.095.2-.094.203-.09.206-.09.206-.086.21-.085.212-.083.215-.08.216-.077.218-.075.222-.074.223-.07.226-.07.227-.065.23-.065.234-.063.236-.06.237-.06.24-.057.243-.056.245-.053.248-.05.25-.05.252-.05.255-.046.257-.045.26-.044.262-.042.265-.04.267-.04.27-.036.273-.036.276-.034.278-.033.28-.032.285-.03.286-.03.29-.027.29-.026.296-.025.298-.024.3-.022.305-.02.306-.022.31-.02.314-.018.315-.017.318-.015.32-.015.326-.014.327-.014.332-.012.334-.012.337-.01.34-.01.344-.01.346-.007.35-.006.353-.007.357-.006.36-.004.728-.008.744-.006.756-.003.77-.002h93.28v108.31l.002.804.004.795.006.79.007.78.007.772.01.765.01.758.01.75.01.744.025 1.466.026 1.436.025 1.406.024 1.38.023 1.35.01.664.01.658.007.65.008.644.005.637.005.63.003.622V139.26l-.002.6-.005.598-.006.59-.01.583-.01.577-.015.57-.018.563-.01.28-.01.278-.01.276-.012.274-.013.273-.013.273-.015.27-.016.268-.016.267-.017.265-.016.264-.02.262-.02.26-.02.26-.02.257-.023.255-.023.255-.024.252-.026.252-.027.248-.027.25-.03.245-.03.246-.03.242-.033.242-.033.24-.035.24-.036.238-.037.237-.04.234-.04.233-.04.232-.042.23-.044.23-.045.226-.047.227-.048.224-.05.224-.05.223-.052.22-.054.22-.056.217-.057.216-.058.215-.06.214-.063.212-.063.21-.065.21-.067.208-.068.206-.07.205-.072.203-.073.202-.076.2-.077.2-.078.198-.082.196-.083.195-.084.193-.086.192-.088.19-.09.19-.093.187-.094.187-.097.183-.1.184-.1.18-.102.182-.103.177-.107.177-.11.176-.11.174-.113.173-.115.17-.118.17-.12.168-.12.166-.125.166-.128.163-.128.16-.13.16-.134.158-.136.156-.138.155-.14.152-.142.15-.144.15-.147.15-.15.145-.15.144-.155.144-.156.14-.158.14-.16.137-.164.137-.165.134-.168.133-.17.13-.172.13-.175.126-.177.124-.18.123-.18.122-.185.12-.187.117-.188.116-.19.115-.194.112-.196.11-.2.11-.2.108-.202.106-.206.104-.208.103-.21.1-.213.1-.215.097-.218.096-.22.094-.222.092-.225.09-.228.09-.23.086-.233.086-.235.084-.237.082-.24.08-.243.08-.246.078-.247.076-.25.075-.253.072-.256.07-.26.07-.26.07-.264.066-.266.065-.27.065-.272.062-.275.06-.277.06-.28.058-.284.056-.286.056-.29.053-.29.05-.295.052-.297.05-.3.046-.304.046-.307.045-.31.042-.31.042-.316.04-.318.04-.32.037-.326.038-.327.035-.332.033-.333.032-.337.03-.34.03-.344.03-.346.026-.35.025-.353.023-.356.023-.36.02-.363.02-.366.02-.368.017-.372.017-.376.014-.38.014-.383.012-.385.01-.39.01-.392.01-.397.006-.4.006-.403.004-.408.003h-.41l-.413.002z" fill="#5e000e"/><defs><linearGradient id="a" x2="1" gradientUnits="userSpaceOnUse" gradientTransform="matrix(28.445 -14.899 14.899 28.445 101.564 77.551)"><stop offset="0%" stop-color="#fff"/><stop offset="100%" stop-color="#c0815e"/></linearGradient><radialGradient id="b" cx="0" cy="0" r="1" gradientUnits="userSpaceOnUse" gradientTransform="matrix(48.529 0 0 76.758 82.264 89.509)"><stop offset="0%" stop-color="#fff" stop-opacity=".668"/><stop offset="100%" stop-color="#a94436" stop-opacity=".668"/></radialGradient></defs></svg>