<?xml version="1.0" standalone="no"?><!DOCTYPE svg PUBLIC "-//W3C//DTD SVG 1.1//EN" "http://www.w3.org/Graphics/SVG/1.1/DTD/svg11.dtd"><svg width="100%" height="100%" viewBox="0 0 48 48" version="1.1" xmlns="http://www.w3.org/2000/svg" xmlns:xlink="http://www.w3.org/1999/xlink" xml:space="preserve" style="fill-rule:evenodd;clip-rule:evenodd;stroke-linejoin:round;stroke-miterlimit:1.41421;"><path id="ipad-vertical" d="M4,11.265l0,25.48c0,0.7 0.54,1.26 1.25,1.26l37.5,0c0.71,0 1.25,-0.56 1.25,-1.26l0,-25.49c0,-0.7 -0.54,-1.26 -1.25,-1.26l-37.5,0c-0.71,0.01 -1.25,0.57 -1.25,1.27l0,0ZM5.5,24.005c0,-0.28 0.22,-0.5 0.5,-0.5c0.28,0 0.5,0.22 0.5,0.5c0,0.28 -0.22,0.5 -0.5,0.5c-0.28,0 -0.5,-0.22 -0.5,-0.5ZM43,24.005c0,0.55 -0.45,1 -1,1c-0.55,0 -1,-0.45 -1,-1c0,-0.55 0.45,-1 1,-1c0.55,0 1,0.45 1,1ZM40,12.005l0,24l-32,0l0,-24l32,0Z" style="fill:#333;"/></svg>