<?xml version="1.0" standalone="no"?><!DOCTYPE svg PUBLIC "-//W3C//DTD SVG 1.1//EN" "http://www.w3.org/Graphics/SVG/1.1/DTD/svg11.dtd"><svg width="100%" height="100%" viewBox="0 0 48 48" version="1.1" xmlns="http://www.w3.org/2000/svg" xmlns:xlink="http://www.w3.org/1999/xlink" xml:space="preserve" style="fill-rule:evenodd;clip-rule:evenodd;stroke-linejoin:round;stroke-miterlimit:1.41421;"><path id="ipadpro-horizontal" d="M0,8.5l0,31c0,0.83 0.65,1.5 1.5,1.5l45,0c0.85,0 1.5,-0.67 1.5,-1.5l0,-31c0,-0.83 -0.65,-1.5 -1.5,-1.5l-45,0c-0.85,0 -1.5,0.67 -1.5,1.5ZM1.25,24c0,-0.41 0.34,-0.75 0.75,-0.75c0.41,0 0.75,0.34 0.75,0.75c0,0.41 -0.34,0.75 -0.75,0.75c-0.41,0 -0.75,-0.34 -0.75,-0.75ZM47,24c0,0.55 -0.46,1 -1,1c-0.54,0 -1,-0.45 -1,-1c0,-0.55 0.46,-1 1,-1c0.54,0 1,0.45 1,1ZM44,9l0,30l-40,0l0,-30l40,0Z" style="fill:#333;"/></svg>