<?xml version="1.0" standalone="no"?><!DOCTYPE svg PUBLIC "-//W3C//DTD SVG 1.1//EN" "http://www.w3.org/Graphics/SVG/1.1/DTD/svg11.dtd"><svg width="100%" height="100%" viewBox="0 0 48 48" version="1.1" xmlns="http://www.w3.org/2000/svg" xmlns:xlink="http://www.w3.org/1999/xlink" xml:space="preserve" style="fill-rule:evenodd;clip-rule:evenodd;stroke-linejoin:round;stroke-miterlimit:1.41421;"><path id="ipad-vertical" d="M36.735,4l-25.48,0c-0.7,0 -1.26,0.54 -1.26,1.25l0,37.5c0,0.71 0.56,1.25 1.26,1.25l25.49,0c0.7,0 1.26,-0.54 1.26,-1.25l0,-37.5c-0.01,-0.71 -0.57,-1.25 -1.27,-1.25ZM23.995,5.5c0.28,0 0.5,0.22 0.5,0.5c0,0.28 -0.22,0.5 -0.5,0.5c-0.28,0 -0.5,-0.22 -0.5,-0.5c0,-0.28 0.22,-0.5 0.5,-0.5ZM23.995,43c-0.55,0 -1,-0.45 -1,-1c0,-0.55 0.45,-1 1,-1c0.55,0 1,0.45 1,1c0,0.55 -0.45,1 -1,1ZM35.995,40l-24,0l0,-32l24,0l0,32Z" style="fill:#333;"/></svg>