<?xml version="1.0" standalone="no"?><!DOCTYPE svg PUBLIC "-//W3C//DTD SVG 1.1//EN" "http://www.w3.org/Graphics/SVG/1.1/DTD/svg11.dtd"><svg width="100%" height="100%" viewBox="0 0 48 48" version="1.1" xmlns="http://www.w3.org/2000/svg" xmlns:xlink="http://www.w3.org/1999/xlink" xml:space="preserve" style="fill-rule:evenodd;clip-rule:evenodd;stroke-linejoin:round;stroke-miterlimit:1.41421;"><path id="ipadpro-vertical" d="M39.5,0l-31,0c-0.83,0 -1.5,0.65 -1.5,1.5l0,45c0,0.85 0.67,1.5 1.5,1.5l31,0c0.83,0 1.5,-0.65 1.5,-1.5l0,-45c0,-0.85 -0.67,-1.5 -1.5,-1.5ZM24,1.25c0.41,0 0.75,0.34 0.75,0.75c0,0.41 -0.34,0.75 -0.75,0.75c-0.41,0 -0.75,-0.34 -0.75,-0.75c0,-0.41 0.34,-0.75 0.75,-0.75ZM24,47c-0.55,0 -1,-0.46 -1,-1c0,-0.54 0.45,-1 1,-1c0.55,0 1,0.46 1,1c0,0.54 -0.45,1 -1,1ZM39,44l-30,0l0,-40l30,0l0,40Z" style="fill:#333;"/></svg>