<?xml version="1.0" standalone="no"?><!DOCTYPE svg PUBLIC "-//W3C//DTD SVG 1.1//EN" "http://www.w3.org/Graphics/SVG/1.1/DTD/svg11.dtd"><svg width="100%" height="100%" viewBox="0 0 48 48" version="1.1" xmlns="http://www.w3.org/2000/svg" xmlns:xlink="http://www.w3.org/1999/xlink" xml:space="preserve" style="fill-rule:evenodd;clip-rule:evenodd;stroke-linejoin:round;stroke-miterlimit:1.41421;"><path id="iphone-vertical" d="M29.557,6.5l-11.057,0c-1.771,0 -3,1.181 -3,2.935l0,29.132c0,1.753 1.232,2.933 3,2.933l11.057,0c1.73,0 2.943,-1.199 2.943,-2.933l0,-29.132c0,-1.728 -1.179,-2.935 -2.943,-2.935l0,0ZM22.5,8.5l3,0l0.001,0.5l-3,0l-0.001,-0.5l0,0ZM24,41c-0.826,0 -1.5,-0.673 -1.5,-1.5c0,-0.828 0.674,-1.5 1.5,-1.5c0.827,0 1.5,0.672 1.5,1.5c0,0.827 -0.672,1.5 -1.5,1.5ZM31.5,37.5l-15,0l0,-27l15,0l0,27ZM24,38.505c-0.552,0 -1,0.448 -1,1c0,0.551 0.448,1 1,1c0.551,0 1,-0.449 1,-1c0,-0.552 -0.448,-1 -1,-1Z" style="fill:#333;fill-rule:nonzero;"/></svg>