<?xml version="1.0" standalone="no"?><!DOCTYPE svg PUBLIC "-//W3C//DTD SVG 1.1//EN" "http://www.w3.org/Graphics/SVG/1.1/DTD/svg11.dtd"><svg width="100%" height="100%" viewBox="0 0 48 48" version="1.1" xmlns="http://www.w3.org/2000/svg" xmlns:xlink="http://www.w3.org/1999/xlink" xml:space="preserve" style="fill-rule:evenodd;clip-rule:evenodd;stroke-linejoin:round;stroke-miterlimit:1.41421;"><path id="iphone-horizontal" d="M0,33.943l0,11.057c0,1.771 1.181,3 2.935,3l29.132,0c1.753,0 2.933,-1.232 2.933,-3l0,-11.057c0,-1.73 -1.199,-2.943 -2.933,-2.943l-29.132,0c-1.728,0 -2.935,1.179 -2.935,2.943l0,0ZM2,41l0,-3l0.5,-0.001l0,3l-0.5,0.001ZM34.5,39.5c0,0.826 -0.673,1.5 -1.5,1.5c-0.828,0 -1.5,-0.674 -1.5,-1.5c0,-0.827 0.672,-1.5 1.5,-1.5c0.827,0 1.5,0.672 1.5,1.5ZM31,32l0,15l-27,0l0,-15l27,0ZM32.005,39.5c0,0.552 0.448,1 1,1c0.551,0 1,-0.448 1,-1c0,-0.551 -0.449,-1 -1,-1c-0.552,0 -1,0.448 -1,1Z" style="fill:#333;fill-rule:nonzero;"/></svg>