<?xml version="1.0" encoding="utf-8"?>
<!-- Generator: Adobe Illustrator 16.0.4, SVG Export Plug-In . SVG Version: 6.00 Build 0)  -->
<!DOCTYPE svg PUBLIC "-//W3C//DTD SVG 1.1//EN" "http://www.w3.org/Graphics/SVG/1.1/DTD/svg11.dtd">
<svg version="1.1" xmlns="http://www.w3.org/2000/svg" xmlns:xlink="http://www.w3.org/1999/xlink" x="0px" y="0px" width="18px"
	 height="54px" viewBox="0 0 18 54" enable-background="new 0 0 18 54" xml:space="preserve">
<g id="Dark">
</g>
<g id="Light">
	<g id="iPhone_1_">
		<path id="iPhone_5s" fill="#333333" d="M15.057,16H4c-1.771,0-3,1.181-3,2.935v29.132C1,49.82,2.232,51,4,51h11.057
			C16.787,51,18,49.801,18,48.067V18.935C18,17.207,16.821,16,15.057,16z M8,18h3l0.001,0.5h-3L8,18z M9.5,50.5
			C8.674,50.5,8,49.827,8,49c0-0.828,0.674-1.5,1.5-1.5c0.827,0,1.5,0.672,1.5,1.5C11,49.827,10.328,50.5,9.5,50.5z M17,47H2V20h15
			V47z M9.5,48.005c-0.552,0-1,0.448-1,1c0,0.551,0.448,1,1,1c0.551,0,1-0.449,1-1C10.5,48.453,10.052,48.005,9.5,48.005z"/>
	</g>
</g>
</svg>
