<?xml version="1.0" standalone="no"?><!DOCTYPE svg PUBLIC "-//W3C//DTD SVG 1.1//EN" "http://www.w3.org/Graphics/SVG/1.1/DTD/svg11.dtd"><svg width="100%" height="100%" viewBox="0 0 48 48" version="1.1" xmlns="http://www.w3.org/2000/svg" xmlns:xlink="http://www.w3.org/1999/xlink" xml:space="preserve" style="fill-rule:evenodd;clip-rule:evenodd;stroke-linejoin:round;stroke-miterlimit:1.41421;"><path id="iphone6s-vertical" d="M16.653,5l-13.326,0c-1.842,0 -3.327,1.51 -3.327,3.353l0,36.277c0,1.846 1.485,3.37 3.327,3.37l13.326,0c1.84,0 3.347,-1.524 3.347,-3.37l0,-36.277c0,-1.843 -1.507,-3.353 -3.347,-3.353l0,0ZM8.5,7.501l3,0l0,0.5l-3,0l0,-0.5ZM10.001,47.25c-0.966,0 -1.751,-0.784 -1.751,-1.75c0,-0.966 0.785,-1.75 1.751,-1.75c0.965,0 1.749,0.784 1.749,1.75c0,0.966 -0.784,1.75 -1.749,1.75ZM19,43l-18,0l0,-33l18,0l0,33ZM10,46.5c-0.551,0 -1,-0.45 -1,-1.001c0,-0.551 0.449,-0.999 1,-0.999c0.551,0 1,0.448 1,0.999c0,0.551 -0.449,1.001 -1,1.001Z" style="fill:#333;fill-rule:nonzero;"/></svg>