<?xml version="1.0" standalone="no"?><!DOCTYPE svg PUBLIC "-//W3C//DTD SVG 1.1//EN" "http://www.w3.org/Graphics/SVG/1.1/DTD/svg11.dtd"><svg width="100%" height="100%" viewBox="0 0 48 48" version="1.1" xmlns="http://www.w3.org/2000/svg" xmlns:xlink="http://www.w3.org/1999/xlink" xml:space="preserve" style="fill-rule:evenodd;clip-rule:evenodd;stroke-linejoin:round;stroke-miterlimit:1.41421;"><path id="iphone6s-vertical" d="M0,29.347l0,15.326c0,1.842 1.51,3.327 3.353,3.327l38.277,0c1.846,0 3.37,-1.485 3.37,-3.327l0,-15.326c0,-1.84 -1.524,-3.347 -3.37,-3.347l-38.277,0c-1.843,0 -3.353,1.507 -3.353,3.347l0,0ZM2.501,38.5l0,-3l0.5,0l0,3l-0.5,0ZM44.25,36.999c0,0.966 -0.784,1.751 -1.75,1.751c-0.966,0 -1.75,-0.785 -1.75,-1.751c0,-0.965 0.784,-1.749 1.75,-1.749c0.966,0 1.75,0.784 1.75,1.749ZM40,27l0,20l-35,0l0,-20l35,0ZM43.5,37c0,0.551 -0.45,1 -1.001,1c-0.551,0 -0.999,-0.449 -0.999,-1c0,-0.551 0.448,-1 0.999,-1c0.551,0 1.001,0.449 1.001,1Z" style="fill:#333;fill-rule:nonzero;"/></svg>